# xmcd
#
# Track frame offsets:
#	150
#	11562
#	23589
#	37977
#	55062
#	66245
#
# Disc length: 1041 seconds
#
# Revision: 0
# Processed by: cddbd v1.5.2PL0 Copyright (c) Steve Scherf et al.
# Submitted via: EasyCDDAExtractor 10.5.1.1
#
DISCID=40040f06
DTITLE=Twitty, Conway - The best of
DYEAR=2005
DGENRE=Country
TTITLE0=Hello Darlin'
TTITLE1=Linda on my Mind
TTITLE2=You've Never Been This Far Before
TTITLE3=Don't Cry Joni
TTITLE4=As Soon as I Hang Up the Phone
TTITLE5=I'm Not Through Loving You Yet
EXTD=
EXTT0=
EXTT1=
EXTT2=
EXTT3=
EXTT4=
EXTT5=
PLAYORDER=
